<svg width="18" height="22" viewBox="0 0 18 22" fill="none" xmlns="http://www.w3.org/2000/svg">
<g clip-path="url(#clip0_7_20)">
<path fill-rule="evenodd" clip-rule="evenodd" d="M8.75 2C7.82174 2 6.9315 2.36875 6.27513 3.02513C5.61875 3.6815 5.25 4.57174 5.25 5.5V7.06C6.368 7.02 7.515 7 8.75 7C9.985 7 11.132 7.02 12.25 7.06V5.5C12.25 4.57174 11.8813 3.6815 11.2249 3.02513C10.5685 2.36875 9.67826 2 8.75 2ZM3.25 5.5V7.277C2.47009 7.52151 1.77602 7.98324 1.24911 8.60809C0.722214 9.23293 0.384311 9.995 0.275 10.805C0.106317 11.9459 0.0144433 13.0968 0 14.25C0.0144433 15.4032 0.106317 16.5541 0.275 17.695C0.405061 18.6821 0.876046 19.5927 1.60648 20.2692C2.33691 20.9458 3.28085 21.3458 4.275 21.4C5.703 21.466 7.154 21.5 8.75 21.5C10.346 21.5 11.796 21.466 13.225 21.4C14.2192 21.3458 15.1631 20.9458 15.8935 20.2692C16.624 19.5927 17.0949 18.6821 17.225 17.695C17.3937 16.5541 17.4855 15.4032 17.5 14.25C17.4859 13.0968 17.3943 11.9459 17.226 10.805C17.1166 9.99488 16.7786 9.23272 16.2515 8.60787C15.7244 7.98301 15.0301 7.52135 14.25 7.277V5.5C14.25 4.04131 13.6705 2.64236 12.6391 1.61091C11.6076 0.579463 10.2087 0 8.75 0C7.29131 0 5.89236 0.579463 4.86091 1.61091C3.82946 2.64236 3.25 4.04131 3.25 5.5ZM13.75 14.24C13.75 13.9748 13.6446 13.7204 13.4571 13.5329C13.2696 13.3454 13.0152 13.24 12.75 13.24C12.4848 13.24 12.2304 13.3454 12.0429 13.5329C11.8554 13.7204 11.75 13.9748 11.75 14.24V14.25C11.75 14.5152 11.8554 14.7696 12.0429 14.9571C12.2304 15.1446 12.4848 15.25 12.75 15.25C13.0152 15.25 13.2696 15.1446 13.4571 14.9571C13.6446 14.7696 13.75 14.5152 13.75 14.25V14.24ZM8.75 13.24C9.01522 13.24 9.26957 13.3454 9.45711 13.5329C9.64464 13.7204 9.75 13.9748 9.75 14.24V14.25C9.75 14.5152 9.64464 14.7696 9.45711 14.9571C9.26957 15.1446 9.01522 15.25 8.75 15.25C8.48478 15.25 8.23043 15.1446 8.04289 14.9571C7.85536 14.7696 7.75 14.5152 7.75 14.25V14.24C7.75 13.9748 7.85536 13.7204 8.04289 13.5329C8.23043 13.3454 8.48478 13.24 8.75 13.24ZM5.75 14.24C5.75 13.9748 5.64464 13.7204 5.45711 13.5329C5.26957 13.3454 5.01522 13.24 4.75 13.24C4.48478 13.24 4.23043 13.3454 4.04289 13.5329C3.85536 13.7204 3.75 13.9748 3.75 14.24V14.25C3.75 14.5152 3.85536 14.7696 4.04289 14.9571C4.23043 15.1446 4.48478 15.25 4.75 15.25C5.01522 15.25 5.26957 15.1446 5.45711 14.9571C5.64464 14.7696 5.75 14.5152 5.75 14.25V14.24Z" fill="#7E6969"/>
</g>
<defs>
<clipPath id="clip0_7_20">
<rect width="17.5" height="21.5" fill="white"/>
</clipPath>
</defs>
</svg>
