<svg width="68" height="35" viewBox="0 0 68 35" fill="none" xmlns="http://www.w3.org/2000/svg">
<path d="M68 0V35H59.9V13.8L50.6 29.2C50.3 29.8 49.8 30.2 49.2 30.5C48.6 30.8 48 31 47.2 31H46.2C45.5 31 44.8 30.8 44.3 30.5C43.7 30.2 43.3 29.7 42.9 29.1L33.5 13.6V35H29C28.3 35 27.7 34.9 27.2 34.7C26.4 34.4 25.9 33.7 25.3 33.1C25.2 32.9 25 32.8 24.9 32.6C24.7 32.4 24.5 32.2 24.4 32C24.2 31.8 24 31.5 23.7 31.3C23.4 31 23.2 30.7 22.9 30.4C22.6 30.1 22.3 29.8 22 29.4C21.7 29.1 21.4 28.7 21.1 28.4C20.8 28 20.4 27.7 20.1 27.3C19.8 26.9 19.4 26.5 19.1 26.1C18.7 25.7 18.4 25.3 18 24.9C17.6 24.5 17.3 24.1 16.9 23.7C16.5 23.3 16.2 22.9 15.8 22.5C15.4 22.1 15.1 21.7 14.7 21.3C14.4 20.9 14 20.5 13.7 20.1C13.4 19.7 13 19.4 12.7 19C12.4 18.6 12.1 18.3 11.8 17.9C11.5 17.6 11.2 17.2 10.9 16.9C10.6 16.6 10.4 16.3 10.1 16C9.9 15.7 9.6 15.5 9.4 15.2C9.2 15 9 14.8 8.8 14.6C8.7 14.4 8.5 14.3 8.4 14.1C8.3 14 8.2 13.9 8.1 13.8L8 13.7V34.9H0V0H4.7C5 0 5.3 0 5.6 0C5.9 0 6.2 0.1 6.4 0.2C6.6 0.3 6.9 0.4 7.1 0.7C7.3 0.8 7.5 1 7.7 1.3L25.4 21.2V0H31.6C31.9 0 32.2 0 32.5 0C32.8 0 33.1 0.1 33.4 0.2C33.9 0.4 34.2 0.7 34.5 1.1C34.8 1.6 35.1 2 35.5 2.5C36.2 3.5 36.9 4.5 37.6 5.6C39 7.7 40.3 9.8 41.6 11.9C42.9 14.1 44.2 16.3 45.4 18.5C45.6 18.9 45.9 19.4 46.1 19.8C46.3 20.2 46.6 20.7 46.8 21.1C47 20.6 47.3 20.2 47.5 19.8L58.6 1.5C58.8 1.2 59 1 59.2 0.8C59.5 0.5 59.8 0.4 60.1 0.3C60.3 0.1 60.6 0 60.9 0C61.1 0 61.4 0 61.8 0H68Z" fill="white"/>
</svg>
