<svg width="20" height="17" viewBox="0 0 20 17" fill="none" xmlns="http://www.w3.org/2000/svg">
<g clip-path="url(#clip0_7_27)">
<path fill-rule="evenodd" clip-rule="evenodd" d="M12.898 0.0330175C11.1316 -0.0119824 9.36439 -0.0119824 7.59801 0.0330175H7.55001C6.41673 0.0285516 5.28446 0.101052 4.16101 0.250018C3.28212 0.360992 2.46304 0.754389 1.82701 1.37102C1.21862 2.00046 0.829972 2.80968 0.719011 3.67802C0.575784 4.77371 0.508956 5.87805 0.519011 6.98302V7.03602C0.500011 7.93602 0.500011 8.83602 0.519011 9.74202V9.79502C0.508963 10.9 0.57579 12.0043 0.719011 13.1C0.829972 13.9684 1.21862 14.7776 1.82701 15.407C2.46345 16.0225 3.28249 16.4149 4.16101 16.525C5.28411 16.6742 6.41605 16.7471 7.54901 16.743H7.60201C9.37301 16.787 11.127 16.787 12.902 16.743H12.95C14.083 16.7471 15.2149 16.6742 16.338 16.525C17.2159 16.431 18.0354 16.0404 18.6612 15.4177C19.287 14.795 19.6817 13.9774 19.78 13.1C19.9232 12.0043 19.9901 10.9 19.98 9.79502V9.74202C19.999 8.84202 19.999 7.94202 19.98 7.03602V6.98302C19.9901 5.87805 19.9233 4.77371 19.78 3.67802C19.6691 2.80968 19.2804 2.00046 18.672 1.37102C18.0362 0.754583 17.2175 0.3612 16.339 0.250018C15.2155 0.101714 14.0832 0.0298825 12.95 0.0350176L12.898 0.0330175ZM6.06101 4.63002C5.90573 4.53825 5.72035 4.51193 5.54566 4.55685C5.37097 4.60176 5.22128 4.71423 5.12951 4.86952C5.03775 5.0248 5.01143 5.21018 5.05634 5.38487C5.10126 5.55956 5.21373 5.70925 5.36901 5.80102L8.03701 7.37902C8.69005 7.83596 9.45495 8.10694 10.25 8.16302C11.0452 8.10665 11.8101 7.83532 12.463 7.37802L15.131 5.80002C15.2863 5.70825 15.3988 5.55856 15.4437 5.38387C15.4886 5.20918 15.4623 5.0238 15.3705 4.86852C15.3251 4.79163 15.2649 4.72444 15.1935 4.67079C15.1221 4.61715 15.0409 4.57809 14.9544 4.55585C14.7797 4.51093 14.5943 4.53725 14.439 4.62902L11.77 6.20702C11.3251 6.53745 10.8007 6.74444 10.25 6.80702C9.69933 6.74444 9.17496 6.53745 8.73001 6.20702L6.06101 4.63002Z" fill="#7E6969"/>
</g>
<defs>
<clipPath id="clip0_7_27">
<rect width="19.5" height="16.779" fill="white" transform="translate(0.5)"/>
</clipPath>
</defs>
</svg>
