<svg width="19" height="21" viewBox="0 0 19 21" fill="none" xmlns="http://www.w3.org/2000/svg">
<g clip-path="url(#clip0_7_23)">
<path d="M15.258 12.89C15.368 12.956 15.505 13.033 15.658 13.12C16.5222 13.5678 17.3283 14.1199 18.058 14.764C18.5534 15.2017 18.882 15.7974 18.988 16.45C19.0128 16.8358 18.9455 17.222 18.7916 17.5768C18.6378 17.9315 18.4017 18.2445 18.103 18.49C17.5676 19.0665 16.9236 19.5317 16.208 19.859C15.4925 20.1862 14.7194 20.369 13.933 20.397H5.56702C4.78067 20.369 4.00757 20.1862 3.29201 19.859C2.57644 19.5317 1.93248 19.0665 1.39702 18.49C1.09824 18.2445 0.862161 17.9315 0.708275 17.5768C0.554389 17.2221 0.487117 16.8358 0.512017 16.45C0.617989 15.7974 0.946596 15.2017 1.44202 14.764C2.17177 14.1199 2.97779 13.5678 3.84202 13.12C3.99602 13.033 4.13302 12.956 4.24202 12.89C5.91024 11.9043 7.81238 11.3844 9.75002 11.3844C11.6877 11.3844 13.5898 11.9043 15.258 12.89Z" fill="#7E6969"/>
<path d="M4.76898 4.981C4.76898 3.99585 5.06111 3.03283 5.60843 2.21371C6.15575 1.39459 6.93368 0.756158 7.84384 0.379158C8.75399 0.00215816 9.75551 -0.0964822 10.7217 0.0957108C11.6879 0.287904 12.5755 0.762298 13.2721 1.4589C13.9687 2.15551 14.4431 3.04304 14.6353 4.00926C14.8275 4.97548 14.7288 5.97699 14.3518 6.88715C13.9748 7.79731 13.3364 8.57523 12.5173 9.12255C11.6982 9.66987 10.7351 9.962 9.74998 9.962C8.42894 9.962 7.162 9.43722 6.22788 8.5031C5.29376 7.56898 4.76898 6.30205 4.76898 4.981Z" fill="#7E6969"/>
</g>
<defs>
<clipPath id="clip0_7_23">
<rect width="18.5" height="20.397" fill="white" transform="translate(0.5)"/>
</clipPath>
</defs>
</svg>
