<svg width="22" height="22" viewBox="0 0 22 22" fill="none" xmlns="http://www.w3.org/2000/svg">
<g clip-path="url(#clip0_7_15)">
<path fill-rule="evenodd" clip-rule="evenodd" d="M9.07501 1.43297C9.08064 1.6861 8.98553 1.93111 8.81057 2.11413C8.63561 2.29715 8.39514 2.4032 8.14201 2.40897C5.42701 2.47097 4.24801 2.74797 3.48101 3.50897C2.81901 4.16897 2.51101 5.15097 2.40701 7.22597C2.40451 7.35366 2.37642 7.47955 2.32441 7.59619C2.2724 7.71283 2.19752 7.81786 2.10421 7.90505C2.01089 7.99224 1.90103 8.05984 1.78114 8.10383C1.66124 8.14782 1.53374 8.16731 1.40617 8.16116C1.27861 8.155 1.15358 8.12332 1.03847 8.068C0.923364 8.01267 0.820525 7.93482 0.736036 7.83905C0.651548 7.74327 0.587128 7.63153 0.546587 7.51042C0.506046 7.38932 0.490207 7.26131 0.500009 7.13397C0.607009 4.99997 0.924009 3.36497 2.13401 2.15997C3.50501 0.792971 5.45501 0.559971 8.10001 0.499971C8.35297 0.494606 8.59772 0.589843 8.78052 0.764771C8.96332 0.9397 9.06924 1.18002 9.07501 1.43297ZM12.925 1.43297C12.9308 1.18002 13.0367 0.9397 13.2195 0.764771C13.4023 0.589843 13.6471 0.494606 13.9 0.499971C16.543 0.559971 18.493 0.792971 19.865 2.15997C21.075 3.36497 21.393 4.99997 21.5 7.13397C21.5096 7.26109 21.4937 7.38885 21.4532 7.50972C21.4126 7.63059 21.3483 7.74212 21.264 7.83774C21.1797 7.93335 21.0771 8.01111 20.9622 8.06644C20.8473 8.12177 20.7226 8.15354 20.5953 8.15988C20.4679 8.16623 20.3406 8.14701 20.2208 8.10337C20.101 8.05973 19.9912 7.99256 19.8978 7.90579C19.8044 7.81903 19.7293 7.71445 19.677 7.59821C19.6246 7.48197 19.5961 7.35642 19.593 7.22897C19.493 5.15397 19.182 4.17197 18.519 3.51197C17.753 2.74797 16.573 2.47097 13.858 2.41197C13.7324 2.40912 13.6086 2.38151 13.4937 2.33074C13.3788 2.27996 13.275 2.20701 13.1884 2.11607C13.1017 2.02512 13.0338 1.91797 12.9886 1.80076C12.9434 1.68354 12.9218 1.55856 12.925 1.43297ZM1.40701 13.865C1.6597 13.8527 1.90693 13.9413 2.09441 14.1111C2.2819 14.281 2.39432 14.5183 2.40701 14.771C2.50701 16.846 2.81801 17.828 3.48101 18.488C4.24701 19.252 5.42701 19.53 8.14201 19.588C8.26755 19.5907 8.39132 19.6182 8.50626 19.6688C8.62119 19.7194 8.72503 19.7921 8.81185 19.8828C8.89867 19.9735 8.96678 20.0805 9.01227 20.1975C9.05777 20.3146 9.07977 20.4394 9.07701 20.565C9.07425 20.6905 9.04679 20.8143 8.9962 20.9292C8.94561 21.0441 8.87288 21.148 8.78215 21.2348C8.69143 21.3216 8.5845 21.3897 8.46745 21.4352C8.35041 21.4807 8.22555 21.5027 8.10001 21.5C5.45601 21.44 3.50701 21.207 2.13501 19.84C0.924009 18.635 0.607009 16.995 0.500009 14.866C0.493816 14.7407 0.512366 14.6154 0.554599 14.4973C0.596832 14.3792 0.66192 14.2705 0.746147 14.1776C0.830374 14.0846 0.932088 14.0092 1.04548 13.9555C1.15887 13.9019 1.28172 13.8711 1.40701 13.865ZM20.593 13.865C20.8457 13.8777 21.083 13.9901 21.2529 14.1776C21.4227 14.3651 21.5112 14.6123 21.499 14.865C21.393 16.994 21.076 18.634 19.866 19.839C18.494 21.206 16.545 21.439 13.901 21.499C13.7757 21.5018 13.6511 21.4799 13.5343 21.4346C13.4175 21.3892 13.3107 21.3213 13.2201 21.2348C13.1295 21.1482 13.0569 21.0446 13.0064 20.9299C12.9558 20.8153 12.9283 20.6918 12.9255 20.5665C12.9227 20.4412 12.9446 20.3166 12.9899 20.1998C13.0352 20.0829 13.1031 19.9762 13.1897 19.8856C13.2763 19.795 13.3799 19.7224 13.4946 19.6718C13.6092 19.6213 13.7327 19.5938 13.858 19.591C16.573 19.529 17.752 19.251 18.519 18.491C19.181 17.831 19.489 16.849 19.593 14.774C19.5988 14.6486 19.6292 14.5255 19.6827 14.4119C19.7361 14.2983 19.8114 14.1963 19.9043 14.1119C19.9972 14.0274 20.1059 13.9621 20.224 13.9198C20.3422 13.8774 20.4676 13.8588 20.593 13.865Z" fill="#7E6969"/>
<path d="M7.81403 8.557C7.81324 7.92828 7.99895 7.31346 8.34767 6.79031C8.69639 6.26717 9.19245 5.85921 9.77309 5.61806C10.3537 5.37691 10.9928 5.31341 11.6096 5.43558C12.2263 5.55775 12.7929 5.86011 13.2378 6.3044C13.6826 6.74869 13.9857 7.31495 14.1087 7.93153C14.2316 8.54811 14.1689 9.18731 13.9285 9.76824C13.6881 10.3492 13.2808 10.8458 12.758 11.1951C12.2353 11.5445 11.6207 11.731 10.992 11.731C10.5749 11.7313 10.1619 11.6494 9.77647 11.49C9.39104 11.3306 9.04078 11.0969 8.74567 10.8022C8.45057 10.5075 8.2164 10.1575 8.05655 9.77225C7.8967 9.38702 7.81429 8.97408 7.81403 8.557Z" fill="#7E6969"/>
<path d="M6.10001 16.413C5.95951 16.2788 5.87805 16.0943 5.87355 15.9C5.86905 15.7057 5.94187 15.5176 6.07601 15.377C6.72068 14.7244 7.48864 14.2064 8.33526 13.8532C9.18187 13.5 10.0903 13.3185 11.0076 13.3195C11.925 13.3204 12.833 13.5037 13.6789 13.8586C14.5248 14.2135 15.2917 14.7331 15.935 15.387C16.0313 15.4918 16.095 15.6223 16.1184 15.7627C16.1417 15.903 16.1237 16.0471 16.0666 16.1774C16.0094 16.3077 15.9156 16.4186 15.7965 16.4965C15.6775 16.5744 15.5383 16.6159 15.396 16.616H6.60001C6.41355 16.6146 6.23469 16.542 6.10001 16.413Z" fill="#7E6969"/>
</g>
<defs>
<clipPath id="clip0_7_15">
<rect width="21" height="21" fill="white" transform="translate(0.5 0.5)"/>
</clipPath>
</defs>
</svg>
